<?xml version="1.0" standalone="no"?>
<!DOCTYPE svg PUBLIC "-//W3C//DTD SVG 20010904//EN"
 "http://www.w3.org/TR/2001/REC-SVG-20010904/DTD/svg10.dtd">
<svg version="1.0" xmlns="http://www.w3.org/2000/svg"
 width="468pt" height="119pt" viewBox="0 0 468 119"
 preserveAspectRatio="xMidYMid meet">
<metadata>
Created by POTRACE VERSION, written by Peter Selinger 2001-2007
</metadata>
<g transform="translate(0,119) scale(0.031200,-0.031200)"
fill="#000000" stroke="none">
<path d="M11595 3723 c-11 -2 -51 -11 -88 -20 -50 -11 -92 -31 -155 -73 -52
-33 -92 -67 -100 -84 -6 -15 -12 -39 -12 -54 0 -15 4 -32 8 -38 4 -6 16 -16
28 -22 11 -6 32 -8 45 -5 13 3 41 21 61 39 20 18 47 39 60 48 13 8 52 25 87
36 35 11 72 20 83 20 11 0 28 -5 39 -10 10 -6 19 -21 19 -35 0 -15 -13 -33
-37 -53 -21 -16 -71 -50 -111 -76 -40 -25 -121 -71 -180 -101 -59 -30 -165
-77 -236 -105 -70 -28 -150 -62 -178 -76 -27 -14 -84 -34 -126 -44 -42 -11
-96 -20 -119 -20 -36 0 -50 7 -93 45 -39 34 -59 45 -84 45 -22 0 -50 -12 -82
-34 -27 -19 -69 -47 -94 -63 -43 -27 -50 -28 -165 -27 -66 1 -203 2 -305 3
-102 1 -278 -3 -391 -10 -151 -8 -226 -8 -277 0 -39 6 -117 11 -174 11 -57 0
-159 -7 -228 -15 -69 -8 -150 -22 -180 -30 -30 -9 -89 -25 -130 -35 -41 -10
-151 -46 -245 -79 -93 -34 -213 -82 -265 -108 -52 -26 -144 -75 -205 -109 -60
-34 -130 -75 -155 -91 -24 -15 -59 -47 -77 -71 -18 -24 -38 -61 -44 -83 -10
-33 -10 -45 4 -75 11 -22 39 -48 78 -74 34 -22 70 -40 80 -40 10 0 39 7 65 16
35 12 64 14 114 9 37 -4 92 -2 125 4 33 6 93 27 135 46 41 19 107 43 146 54
39 10 84 26 101 34 16 9 35 22 41 30 7 8 31 22 54 32 24 10 124 58 224 106
l180 88 87 95 c53 57 104 102 130 115 24 12 61 21 83 21 21 0 83 -5 136 -12
78 -9 107 -9 150 1 29 8 130 18 223 23 94 5 202 11 240 14 63 5 73 3 90 -16
18 -19 18 -24 5 -47 -8 -14 -55 -51 -105 -82 -49 -31 -144 -97 -210 -146 -66
-49 -142 -107 -168 -129 -27 -23 -74 -64 -106 -92 -31 -28 -75 -61 -96 -73
-22 -13 -57 -44 -79 -70 -21 -25 -79 -91 -129 -146 -50 -55 -112 -120 -137
-145 -25 -25 -88 -83 -139 -130 -52 -47 -124 -112 -160 -146 -36 -33 -99 -87
-139 -120 -40 -32 -107 -85 -150 -116 -42 -32 -109 -74 -147 -93 -39 -20 -113
-47 -165 -60 -52 -13 -126 -33 -163 -44 -56 -17 -85 -19 -166 -14 -64 4 -110
2 -134 -6 -20 -7 -71 -16 -114 -21 -43 -5 -97 -12 -120 -16 -26 -4 -54 -2 -72
6 -16 6 -35 25 -41 41 -10 23 -10 36 1 60 8 20 25 37 45 45 19 8 54 14 79 14
24 0 66 8 93 18 26 10 77 38 112 62 35 24 83 62 106 86 24 23 47 58 53 79 8
29 7 46 -4 71 -7 18 -27 40 -44 48 -16 9 -49 16 -72 16 -36 0 -62 -14 -199
-105 -87 -57 -195 -139 -239 -181 -45 -43 -89 -90 -97 -105 -7 -15 -14 -44
-14 -64 0 -20 9 -53 20 -74 10 -21 37 -53 58 -70 22 -17 61 -40 87 -51 26 -11
66 -21 89 -23 22 -1 140 2 261 6 121 4 270 12 330 18 61 6 146 19 190 30 44
10 130 43 190 73 61 29 121 57 135 61 14 4 54 25 90 45 36 21 92 46 125 55 33
9 71 24 85 33 14 9 59 30 100 48 41 17 98 44 125 61 28 16 81 44 119 61 37 18
81 32 96 32 15 0 35 -9 44 -19 15 -17 16 -25 6 -55 -6 -19 -20 -47 -32 -61
-11 -14 -49 -45 -85 -67 -38 -24 -75 -57 -89 -80 -14 -21 -27 -52 -31 -68 -3
-17 0 -44 7 -61 11 -25 34 -41 129 -88 64 -32 130 -61 148 -64 19 -4 51 0 80
10 26 9 95 20 153 24 58 4 148 14 200 22 52 8 119 24 148 36 29 11 66 21 82
21 19 0 33 -7 40 -19 5 -11 10 -39 10 -63 0 -24 8 -59 18 -77 10 -19 34 -43
53 -53 19 -10 54 -18 82 -18 30 0 79 12 135 34 48 19 111 42 139 51 49 16 55
16 78 1 14 -9 34 -34 45 -56 11 -22 35 -47 53 -57 18 -9 54 -17 82 -17 28 0
84 10 125 22 41 11 113 30 159 42 47 11 162 54 257 95 94 41 176 75 182 75 5
0 58 23 118 52 60 29 129 64 154 80 34 21 71 32 147 43 55 8 108 12 117 9 9
-3 16 -12 16 -20 0 -7 -12 -24 -26 -38 -15 -13 -73 -52 -130 -86 -57 -34 -106
-65 -109 -70 -3 -5 -38 -27 -79 -49 -48 -27 -82 -54 -99 -78 -14 -21 -28 -48
-32 -60 -3 -13 1 -35 10 -52 8 -17 24 -35 34 -41 11 -5 34 -10 51 -10 17 0 45
7 63 17 18 9 53 31 79 49 26 18 69 40 95 49 27 9 91 36 143 60 52 24 105 46
117 50 15 4 28 0 42 -14 16 -16 19 -33 19 -85 0 -40 5 -72 13 -82 7 -8 29 -24
48 -34 20 -9 56 -21 81 -25 25 -4 80 -15 123 -26 64 -15 89 -16 134 -8 31 6
92 23 137 39 44 15 115 37 156 49 41 11 118 38 170 60 52 21 147 65 211 98 64
33 136 72 160 86 24 14 63 29 87 33 38 6 42 5 42 -14 0 -11 -19 -47 -42 -81
-24 -33 -71 -95 -105 -138 -35 -43 -92 -117 -127 -165 -35 -48 -67 -101 -71
-118 -4 -16 -3 -40 0 -52 4 -13 14 -31 23 -41 10 -11 30 -17 58 -17 39 0 46 4
81 47 21 26 53 63 71 81 26 28 35 32 47 22 11 -9 14 -34 12 -110 l-2 -98 41
-58 c22 -32 56 -71 76 -86 28 -23 56 -32 147 -48 97 -17 130 -19 239 -11 70 5
138 14 152 19 14 5 32 18 41 28 9 11 20 28 23 40 4 14 0 30 -13 45 -19 23 -24
24 -203 29 -180 5 -184 6 -251 37 -48 23 -70 40 -77 58 -7 19 -7 34 2 53 7 15
24 32 38 39 15 8 64 13 120 13 52 0 112 5 132 10 21 6 50 22 66 35 16 14 45
57 65 97 19 40 43 96 52 123 9 28 19 75 22 105 4 50 1 62 -40 140 -44 84 -46
85 -98 102 -30 9 -66 19 -81 22 -18 4 -30 15 -34 30 -3 13 1 36 9 52 9 16 70
86 136 157 66 70 146 149 178 176 32 28 123 114 203 193 80 79 175 177 211
218 36 41 74 89 84 105 11 17 42 59 70 95 28 36 65 88 82 115 18 28 46 81 64
119 19 41 35 92 37 122 4 49 2 56 -26 84 -21 20 -40 30 -62 30 -17 0 -45 -6
-63 -14 -18 -7 -69 -42 -114 -77 -45 -35 -113 -90 -152 -121 -38 -32 -108
-102 -155 -156 -47 -54 -116 -141 -152 -193 -37 -52 -79 -108 -94 -125 -15
-17 -61 -92 -102 -165 -42 -74 -85 -152 -96 -174 -11 -23 -48 -78 -82 -123
-45 -59 -86 -99 -153 -148 -54 -40 -170 -106 -286 -165 -108 -54 -241 -117
-296 -139 -55 -23 -141 -57 -192 -75 -50 -19 -143 -48 -206 -65 -64 -16 -129
-30 -145 -30 -16 0 -36 7 -43 16 -11 13 -11 20 1 42 8 14 33 35 55 46 22 12
78 38 123 59 46 22 100 53 119 70 20 18 47 54 59 82 13 27 24 65 24 83 0 18
-6 47 -14 66 -7 18 -26 42 -41 54 -15 12 -46 27 -68 33 -34 9 -59 7 -155 -15
-65 -14 -140 -38 -173 -56 -32 -16 -73 -30 -90 -30 -24 0 -44 11 -80 45 -39
37 -55 45 -85 45 -21 0 -63 -4 -93 -10 -31 -5 -92 -14 -136 -19 -44 -5 -118
-20 -165 -33 -47 -14 -103 -34 -126 -46 -22 -11 -69 -28 -104 -37 -34 -9 -116
-43 -182 -76 -65 -33 -153 -73 -196 -90 -42 -17 -113 -37 -156 -45 -48 -9 -83
-11 -89 -5 -5 5 6 26 28 50 21 23 81 67 134 98 52 31 117 68 145 82 27 14 62
38 77 54 22 21 29 38 29 66 0 24 -7 44 -18 54 -10 9 -47 23 -83 30 -35 7 -84
27 -108 43 -40 26 -53 29 -115 28 -46 -1 -93 -9 -131 -23 -33 -13 -80 -29
-105 -37 -25 -8 -76 -26 -115 -39 -38 -13 -108 -37 -155 -55 -47 -18 -114 -43
-150 -57 -36 -14 -100 -34 -143 -44 -43 -11 -87 -24 -97 -29 -10 -6 -54 -15
-97 -20 -43 -6 -125 -25 -183 -41 -58 -17 -125 -40 -149 -51 -36 -16 -54 -19
-90 -12 -25 4 -119 8 -209 9 -150 0 -165 2 -178 19 -8 11 -11 29 -8 40 3 12
17 32 30 47 14 14 54 35 94 48 39 12 136 51 218 87 94 42 157 76 175 95 16 17
27 41 27 58 0 15 -8 35 -18 44 -10 10 -31 17 -46 17 -15 0 -61 -16 -102 -35
-41 -19 -83 -35 -93 -35 -10 0 -24 7 -31 15 -10 12 -9 20 6 42 9 16 44 55 76
89 49 51 59 69 68 113 5 29 19 66 30 82 12 15 41 45 65 64 24 20 50 51 59 69
9 19 16 59 16 91 0 31 -7 69 -15 85 -9 18 -36 40 -65 55 -34 17 -52 33 -56 51
-5 18 0 32 17 50 13 14 39 35 59 47 19 11 60 39 90 61 30 23 93 72 140 109 47
38 123 94 170 126 47 32 108 70 135 84 29 14 92 32 150 41 55 9 123 21 150 26
28 5 93 17 145 26 52 10 122 28 155 42 33 13 118 44 189 68 70 24 156 59 190
78 34 18 91 44 127 57 35 13 102 46 149 73 47 27 117 72 155 100 39 27 89 66
111 85 23 20 61 49 84 64 23 16 48 43 56 62 8 19 14 49 14 67 0 19 -7 44 -16
56 -8 12 -24 27 -35 32 -11 6 -57 18 -102 26 -45 7 -98 13 -117 13 -19 -1 -44
-3 -55 -6z m-2797 -875 c7 -7 12 -20 12 -29 0 -10 -34 -48 -76 -86 -42 -37
-90 -76 -107 -87 -18 -10 -45 -27 -60 -38 -16 -11 -58 -28 -93 -38 -35 -10
-83 -32 -106 -49 -24 -17 -70 -40 -102 -51 -33 -11 -85 -34 -115 -51 -34 -20
-84 -36 -133 -45 -46 -8 -105 -27 -147 -49 -41 -20 -85 -35 -106 -35 -20 0
-51 7 -70 14 -21 9 -35 22 -36 33 -1 10 0 25 1 33 1 8 13 30 27 48 19 25 69
55 207 122 99 48 206 96 236 106 30 9 103 38 161 64 58 26 148 57 200 70 52
12 128 34 169 50 41 16 86 29 101 29 14 1 30 -4 37 -11z m5870 -490 c7 -7 12
-24 12 -39 0 -15 -7 -42 -14 -61 -8 -19 -30 -46 -48 -60 -18 -14 -53 -51 -78
-83 -25 -31 -96 -108 -157 -171 -93 -94 -118 -114 -142 -114 -20 0 -32 6 -36
19 -3 11 1 37 10 57 9 21 33 61 54 88 21 28 49 67 62 87 13 20 59 80 103 134
44 54 99 110 124 126 25 16 58 29 72 29 14 0 31 -5 38 -12z m-5047 -204 c12
-11 19 -31 19 -54 0 -23 -7 -43 -18 -53 -10 -9 -39 -26 -64 -37 -26 -11 -63
-21 -82 -22 -19 -1 -42 5 -51 12 -8 7 -15 28 -15 50 0 27 7 45 27 65 15 15 43
35 63 46 22 12 47 17 69 14 18 -2 42 -12 52 -21z m-417 -283 c9 -10 19 -34 22
-52 4 -26 0 -41 -16 -62 -12 -15 -45 -39 -73 -53 -29 -15 -65 -36 -82 -49 -16
-12 -53 -34 -82 -49 -29 -14 -64 -26 -78 -26 -19 0 -25 5 -25 21 0 14 47 68
133 155 101 101 140 134 159 134 14 0 33 -8 42 -19z m1744 -463 c7 -7 12 -23
12 -36 0 -13 -12 -36 -27 -51 -16 -15 -67 -48 -114 -74 -47 -25 -119 -58 -160
-73 -41 -14 -87 -34 -104 -44 -16 -9 -70 -30 -120 -45 -49 -15 -109 -36 -133
-47 -24 -11 -59 -18 -79 -16 -25 2 -42 11 -55 29 -19 25 -19 28 -3 58 9 18 37
45 63 62 25 16 69 38 97 48 27 11 84 35 125 54 41 19 120 49 175 67 55 18 129
43 165 56 36 12 83 23 106 23 22 1 45 -4 52 -11z m2969 -430 c15 -14 23 -33
23 -55 0 -19 -9 -53 -21 -76 -12 -23 -33 -55 -48 -71 -14 -15 -37 -33 -51 -38
-14 -6 -59 -14 -100 -19 -41 -4 -100 -11 -130 -15 -46 -5 -58 -3 -70 11 -13
15 -12 21 5 50 11 18 49 57 84 86 35 30 82 69 105 87 22 18 59 42 81 53 25 12
51 17 70 14 16 -3 39 -15 52 -27z"/>
<path d="M2824 3194 c-21 -15 -64 -50 -94 -78 -30 -28 -71 -63 -90 -76 -19
-14 -116 -106 -216 -205 -100 -99 -232 -225 -293 -280 -61 -55 -175 -164 -253
-243 -78 -79 -153 -149 -167 -156 -14 -8 -51 -19 -82 -25 -40 -8 -75 -25 -117
-57 -33 -24 -67 -55 -75 -68 -9 -12 -21 -43 -27 -67 -7 -24 -21 -56 -31 -70
-10 -15 -51 -46 -91 -69 -40 -24 -82 -51 -93 -61 -11 -9 -76 -55 -145 -101
-69 -46 -201 -127 -295 -180 -93 -52 -212 -112 -263 -132 -66 -27 -104 -36
-134 -34 -36 3 -46 9 -66 38 -16 25 -22 43 -18 63 3 15 20 48 37 73 17 25 89
103 159 174 70 70 133 137 139 148 6 11 11 30 11 41 0 11 -10 27 -22 35 -12 9
-32 16 -44 16 -12 0 -56 -26 -97 -57 -42 -32 -96 -72 -119 -90 -24 -17 -74
-62 -113 -100 -42 -41 -84 -94 -105 -133 -30 -56 -35 -74 -34 -130 1 -36 9
-81 17 -101 9 -20 36 -59 61 -86 24 -27 66 -59 91 -72 40 -20 58 -23 121 -19
63 4 87 12 166 53 51 26 109 59 128 74 19 15 53 39 75 52 22 14 59 31 82 37
23 7 62 27 85 45 24 18 66 45 93 60 28 15 91 60 140 100 50 40 107 80 128 90
21 10 54 21 73 24 29 5 34 3 34 -13 0 -11 -10 -34 -22 -51 -13 -17 -62 -81
-110 -143 -79 -100 -88 -117 -88 -154 0 -23 8 -50 18 -63 9 -12 33 -29 52 -36
22 -9 43 -12 56 -7 12 5 37 30 57 57 19 26 65 75 103 107 37 33 97 101 134
150 38 50 88 109 112 132 23 23 66 58 93 78 28 21 65 44 84 52 18 8 70 18 115
24 44 5 117 21 161 34 44 13 98 31 120 39 22 7 82 22 133 32 72 14 99 15 118
7 13 -7 24 -19 24 -29 0 -9 -11 -33 -25 -52 -14 -20 -46 -51 -72 -69 -27 -18
-62 -43 -80 -55 -17 -12 -68 -50 -112 -85 -45 -35 -88 -76 -96 -92 -8 -16 -15
-45 -15 -65 0 -22 8 -43 20 -55 12 -12 33 -20 55 -20 20 0 50 7 66 16 17 8 48
32 71 52 22 20 90 76 151 124 62 48 191 140 287 205 96 65 194 127 217 137 23
10 49 16 57 13 10 -4 16 -18 16 -35 0 -16 -9 -41 -20 -55 -12 -15 -58 -53
-103 -86 -45 -32 -104 -82 -130 -109 -25 -28 -57 -71 -69 -96 -19 -41 -20 -49
-9 -88 8 -24 30 -59 51 -80 34 -35 42 -38 91 -38 30 0 83 7 118 15 36 9 79 24
96 35 17 10 73 35 124 55 51 19 155 72 230 116 75 45 154 94 176 109 23 16 81
49 131 74 49 25 113 65 141 90 29 24 69 54 90 67 21 13 71 48 112 79 41 30 94
70 119 89 25 19 57 47 70 63 13 16 38 36 54 44 18 10 40 13 59 9 16 -4 38 -18
49 -32 11 -14 20 -37 20 -51 0 -18 -28 -54 -107 -134 -64 -65 -135 -126 -173
-149 -36 -22 -103 -69 -150 -104 -47 -36 -108 -80 -136 -99 -28 -19 -61 -47
-73 -64 -11 -17 -21 -42 -21 -56 0 -15 11 -38 25 -51 17 -18 35 -25 64 -25 31
0 49 8 88 40 26 22 80 61 118 86 39 26 94 64 122 86 29 22 68 61 87 87 20 29
55 60 87 78 30 17 84 57 120 89 37 33 100 76 140 97 41 21 99 52 129 69 30 16
91 51 135 77 44 26 93 53 109 59 24 11 32 10 52 -3 14 -9 24 -25 24 -39 0 -13
-21 -50 -47 -82 -26 -32 -82 -90 -124 -129 -44 -40 -110 -88 -155 -111 -48
-26 -88 -54 -101 -74 -12 -17 -25 -51 -29 -76 -3 -24 -3 -64 1 -89 4 -30 17
-58 36 -80 16 -18 49 -43 73 -54 40 -20 53 -21 257 -15 199 6 220 8 303 35 49
16 101 29 116 29 15 0 49 -7 76 -15 27 -8 76 -19 110 -25 46 -7 79 -6 140 6
65 12 91 13 148 3 38 -6 91 -9 117 -6 26 3 81 19 121 36 40 17 96 35 123 41
28 6 73 17 100 25 28 8 97 28 155 45 58 16 202 69 321 116 155 61 224 93 244
114 17 18 25 35 22 45 -4 8 -19 20 -33 26 -15 5 -41 7 -58 4 -17 -4 -98 -25
-181 -47 -82 -22 -186 -51 -230 -63 -44 -13 -100 -26 -125 -30 -25 -4 -85 -19
-135 -35 -49 -16 -127 -34 -173 -40 -45 -6 -87 -8 -92 -5 -6 3 -10 10 -10 14
0 5 48 58 108 117 59 60 128 139 154 175 25 36 57 83 70 105 19 32 23 53 23
121 0 72 -3 84 -24 107 -14 15 -43 31 -65 37 -23 6 -59 9 -81 7 -22 -3 -81
-20 -130 -39 -50 -18 -112 -47 -140 -64 -27 -17 -75 -44 -105 -59 -30 -15 -75
-44 -98 -64 -24 -21 -63 -50 -86 -67 -24 -16 -80 -64 -126 -105 -46 -41 -102
-93 -125 -115 -35 -33 -45 -51 -55 -98 -6 -32 -22 -70 -36 -86 -14 -18 -41
-33 -68 -40 -25 -6 -114 -11 -199 -11 -137 0 -158 2 -178 19 -20 16 -22 22
-12 43 6 14 33 43 59 64 26 21 66 58 88 80 23 23 59 63 82 90 22 27 63 83 91
125 28 41 58 93 67 114 9 20 16 57 16 82 0 34 -6 50 -26 70 -24 24 -29 25
-117 21 -51 -3 -114 -13 -142 -22 -27 -10 -86 -36 -130 -58 -44 -22 -98 -53
-120 -69 -22 -16 -54 -31 -71 -35 -21 -4 -44 0 -68 11 -20 10 -46 30 -57 46
-11 16 -34 36 -51 45 -16 8 -60 18 -96 21 -61 5 -74 2 -133 -25 -36 -17 -90
-49 -120 -72 -29 -23 -85 -56 -124 -74 -38 -18 -108 -62 -155 -97 -47 -35
-130 -96 -185 -136 -55 -39 -194 -120 -310 -180 -116 -59 -248 -125 -293 -147
-58 -27 -90 -36 -108 -32 -13 4 -28 13 -31 22 -3 8 -1 26 5 39 6 13 56 56 112
95 58 42 113 90 129 114 15 22 36 65 46 94 11 36 15 65 10 90 -4 20 -19 60
-35 87 -16 28 -43 58 -60 69 -23 13 -43 17 -72 13 -23 -3 -56 -18 -77 -35 -20
-16 -59 -41 -86 -55 -28 -14 -68 -39 -89 -56 -22 -17 -49 -34 -62 -37 -12 -3
-30 -4 -40 -2 -10 2 -33 23 -51 48 -18 25 -44 57 -58 72 -17 18 -40 29 -70 34
-37 5 -77 -2 -214 -40 -93 -25 -177 -46 -188 -46 -10 0 -24 5 -31 12 -7 7 -12
15 -12 20 0 4 14 23 31 43 18 20 61 53 98 74 36 22 86 55 111 75 25 20 79 63
121 95 42 33 111 95 154 138 43 43 98 104 121 136 23 31 61 78 84 105 23 26
57 83 76 127 20 44 42 98 51 120 9 22 16 69 16 105 1 36 -5 82 -12 103 -7 21
-22 47 -34 57 -13 12 -35 20 -57 20 -24 0 -52 -10 -76 -26z m2 -228 c14 -23
14 -28 -1 -58 -9 -18 -39 -65 -68 -105 -29 -40 -91 -117 -139 -172 -48 -55
-125 -133 -170 -175 -46 -41 -145 -119 -220 -173 -75 -54 -159 -110 -185 -126
-26 -15 -63 -37 -81 -49 -20 -12 -37 -17 -42 -12 -6 6 1 26 18 50 15 22 38 56
52 74 14 18 88 99 165 178 77 80 164 168 192 196 29 28 132 129 229 224 146
143 180 172 205 172 19 0 34 -8 45 -24z m3434 -826 c11 -11 20 -31 20 -45 0
-15 -15 -42 -37 -66 -20 -22 -57 -55 -82 -72 -25 -17 -82 -60 -125 -95 -47
-38 -124 -86 -189 -118 -61 -30 -122 -54 -137 -54 -15 0 -38 8 -50 18 -18 15
-21 24 -15 50 3 18 21 47 38 65 18 17 75 65 127 106 52 41 145 104 205 139 61
36 124 71 140 78 17 7 42 13 58 14 15 0 36 -9 47 -20z"/>
</g>
</svg>
